<svg xmlns="http://www.w3.org/2000/svg" xmlns:xlink="http://www.w3.org/1999/xlink" width="536.226" height="282.757" viewBox="0 0 536.226 282.757"><defs><style>.a{fill:#d2f2ff;}.b{clip-path:url(#a);}.c{fill:#002c5c;}.d{fill:#d3ddf8;}.e{fill:#ff8d00;}.f{fill:#003a6c;}.g{fill:#002440;}.h{fill:#002341;}.i{fill:#0bacff;}.j{opacity:0.08;}.k,.l{fill:#fff;}.k{opacity:0.64;}.m{fill:#0075a3;}.n{fill:#d17300;}.o{fill:#0c1540;}.p{fill:#f0f5ff;opacity:0.22;}.q{fill:#137eb2;}.r{fill:#00172f;}.s{fill:#003a78;}.t{fill:#ffc4c2;}.u{fill:#8d1c23;}.v{fill:#ff3c24;}.w{fill:#f99f98;}.x{fill:#dee7ff;opacity:0.34;}.y{fill:#167db3;}</style><clipPath id="a"><path d="M43.9,290.451S23.33,263.3,33.153,230.734s35.062-57.438,26.92-95.113c-9.665-44.736,12.847-81.3,53.057-77.6C185.573,64.7,228.59,15.409,253.17,10.335,325.993-4.7,339.275,50.3,378.579,55.657c84.827,11.566,111.045,48.58,108.009,119.577-1,23.357,63.956,70.124,26.66,115.219H43.9Z" transform="translate(-30.496 -7.74)"/></clipPath></defs><g transform="translate(-10.84 -7.74)"><g transform="translate(10.84 7.74)"><g transform="translate(32.621)"><path class="a" d="M43.9,290.451S23.33,263.3,33.153,230.734s35.062-57.438,26.92-95.113c-9.665-44.736,12.971-82.465,53.057-77.6C180.3,66.182,228.59,15.409,253.17,10.335,325.993-4.7,339.275,50.3,378.579,55.657c84.827,11.566,111.045,48.58,108.009,119.577-1,23.357,63.956,70.124,26.66,115.219H43.9Z" transform="translate(-30.496 -7.74)"/><g class="b"><g transform="translate(54.247 -5.084)"><rect class="c" width="7.184" height="179.594" transform="translate(181.023 43.567) rotate(90)"/><rect class="c" width="7.184" height="179.594" transform="translate(181.023 98.134) rotate(90)"/><rect class="c" width="7.186" height="179.594" transform="translate(181.023 152.699) rotate(90)"/><rect class="c" width="7.184" height="159.885"/><rect class="c" width="7.184" height="159.885" transform="translate(59.145)"/><rect class="c" width="7.183" height="159.885" transform="translate(118.287)"/><rect class="c" width="7.184" height="159.885" transform="translate(177.43)"/><path class="d" d="M101.433,90.061c-1.474,1.729-1.918,4.768-2.5,6.887-.465,1.694-.85,3.409-1.2,5.13H96.595a136.69,136.69,0,0,1,2.82-14.034c.934-3.3,3.037-4.924,6.233-5.863,2.685-.79,5.415-1.454,8.12-2.176a55.337,55.337,0,0,0-10.849,1.142,36.737,36.737,0,0,0-4.174,1.226,143.748,143.748,0,0,1,6.283-14.955c.226-.476-14.775,13.489-11.026,34.657h-1.09c-.033-.051-.07-.1-.1-.153-1.532-5.133-1.256-10.681-3.334-15.667-1.917-4.6-5.6-8.1-9.533-11.02-.36-.266-.675.229-.541.543,1.937,4.5,5.2,8.15,7.226,12.566,1.651,3.595,2.962,7.379,4.278,11.139a10.317,10.317,0,0,0-6.7-3.517c-4.569-.541-6.592,2.116-8.056,6.087-.159.428.511.689.724.305,1.421-2.557,5-3.2,7.7-3.2,2.735,0,4.881,1.323,6.927,2.918H88.245l2.511,15.237h8.738L102,102.075H99.836c.727-1.738,1.349-3.52,2.162-5.236,1.072-2.259,2.114-4.325,5.058-3.9a47.9,47.9,0,0,1,5.566,1.507C113.118,94.584,104.028,87.018,101.433,90.061Z" transform="translate(-54.644 36.7)"/></g><path class="e" d="M237.248,62.841a135.2,135.2,0,0,1-24.612-23.425V7.741h-3.387V39.416a135.11,135.11,0,0,1-24.61,23.425h19.547a6.605,6.605,0,0,0,13.21,0h19.852Z" transform="translate(71.176 -7.74)"/><path class="e" d="M287.154,92.5a135.246,135.246,0,0,1-24.612-23.427V15.742h-3.384V69.071A135.1,135.1,0,0,1,234.545,92.5h19.548a6.605,6.605,0,1,0,13.21,0h19.85Z" transform="translate(104.093 -2.463)"/><path class="c" d="M272.954,40.1V141.2H374.046V40.1Zm85.972,85.972H288.075V55.223h70.851Z" transform="translate(129.428 13.605)"/><path class="c" d="M246.446,72.568v35.673h35.676V72.568Zm30.341,30.337h-25v-25h25Z" transform="translate(111.943 35.019)"/><path class="c" d="M220.093,72.568v35.673h35.676V72.568Zm30.339,30.337h-25v-25h25Z" transform="translate(94.561 35.019)"/></g></g><g transform="translate(0 132.776)"><path class="f" d="M74.307,88.279a.725.725,0,0,0-.7-.533c-6.867.111-15.476.131-21.294,4.378-5.419,3.956-6.23,10.94-6.109,17.16a.74.74,0,0,0,1.17.568c.02.008.033.027.053.033A19.992,19.992,0,0,0,74.307,88.279Z" transform="translate(12.477 -87.746)"/><path class="f" d="M51.483,113.571c.051-4.781-1.059-9.617-4.73-12.935-4.21-3.807-10.3-5.976-15.277-8.56-.506-.261-1.318.188-1.067.823,2.249,5.726,1.933,12.724,5.91,17.7a13.146,13.146,0,0,0,14.17,4.094,6.016,6.016,0,0,0,.994-1.122Z" transform="translate(2.037 -84.94)"/><path class="f" d="M83.9,115.293c-3.377-2.619-7.73-2.353-11.818-2.176a33.978,33.978,0,0,0-13.22,2.856c-7.191,3.42-12.251,10.973-9.647,18.971a.706.706,0,0,0,.483.848c6.857,2.171,10.168-2.41,14.3-6.969A43.566,43.566,0,0,1,83.581,116.51C84.051,116.365,84.361,115.648,83.9,115.293Z" transform="translate(14.016 -71.08)"/><path class="f" d="M93.859,129.339a2.243,2.243,0,0,1-.262-.115c-2.911-1.251-5.516-3.626-8.165-5.911,0-.013-.017-.013-.03-.03-2.9-2.5-5.852-4.876-9.3-5.5a.179.179,0,0,0-.088-.015,10.174,10.174,0,0,0-5.123.425c-7.337,2.445-11.849,10.085-12.576,17.436a.635.635,0,0,0,.116.423c-.015.043-.03.073-.043.116a.8.8,0,0,0,.656,1.019A57.317,57.317,0,0,0,77.658,135.9c5.46-1.148,11.63-2.083,16.375-5.239A.737.737,0,0,0,93.859,129.339Z" transform="translate(20.471 -68.047)"/><path class="f" d="M83.385,133.921c-8.027-1.608-24.617-5.7-25.75,7.1a.6.6,0,0,0,.538.677c7.287,8.549,21.455,1.766,25.646-6.711A.734.734,0,0,0,83.385,133.921Z" transform="translate(20.024 -58.551)"/><path class="f" d="M47.673,122.183c-2.129-4.715-7.076-9.584-11.944-11.362a.733.733,0,0,0-.923.7c.081,9.29-2.2,23.908,7.9,29.045a.755.755,0,0,0,.212.058.707.707,0,0,0,1.228.01C47.27,135.06,50.547,128.541,47.673,122.183Z" transform="translate(4.859 -72.549)"/><path class="f" d="M37.067,122.69a17.755,17.755,0,0,0-18.468-2c-7.961,4.044-6.535,13.635-7.747,21.024a.735.735,0,0,0,1.216.71c7.868-6.9,18.843-9.611,24.846-18.65,0,0,0,0,0,0A.639.639,0,0,0,37.067,122.69Z" transform="translate(-10.84 -67.147)"/><path class="f" d="M31.173,125.841a.712.712,0,0,0-.9-.262.69.69,0,0,0-.909-.2c-3.943,2.164-8.565,5.186-9.343,9.956-.926,5.686,2.269,11.235,2.632,16.837.048.77,1.268,1.049,1.427.194,1.011-5.382,6.59-7.837,8.64-12.679C34.407,135.7,33.514,129.424,31.173,125.841Z" transform="translate(-4.896 -62.986)"/><path class="f" d="M48.636,151.134c-4.632-6.5-9.395-12.065-17.444-14.1a.734.734,0,0,0-.821,1.067c1.812,2.725,1.774,5.814,3.294,8.56a11.066,11.066,0,0,0,3.922,3.822c3.429,2.169,7.853,4.136,11.679,1.943A.722.722,0,0,0,48.636,151.134Z" transform="translate(1.969 -55.251)"/><path class="f" d="M52.111,147.386a.693.693,0,0,0-.08-.209c-3.183-5.085-3.322-11.544-7.719-15.919a.735.735,0,0,0-1.142.148c-2.156,3.45-3.2,7.6-1.487,11.464,1.854,4.187,5.752,5.331,10,5.769C52.43,148.717,52.563,147.8,52.111,147.386Z" transform="translate(8.94 -59.184)"/><path class="f" d="M58.044,106.788c-.908-.76-2.119,0-3.015.378a23.105,23.105,0,0,0-4.806,2.64,11.2,11.2,0,0,0-4.816,8.393.677.677,0,0,0-.018.266c0,.1-.018.2-.018.3a.737.737,0,0,0,1.4.287c3.523-.773,6.31-3.044,8.62-5.767C56.451,112.03,60.164,108.562,58.044,106.788Z" transform="translate(11.936 -75.401)"/><path class="f" d="M56.669,148.191c-.111-.1-.2-.222-.307-.33.9-6.209,1.29-13.4-4.824-17.051a.732.732,0,0,0-1.067.436,18.261,18.261,0,0,0,5.17,17.977C56.319,149.864,57.35,148.836,56.669,148.191Z" transform="translate(14.908 -59.406)"/><path class="g" d="M93.231,128.613a38.972,38.972,0,0,1-7.8-5.3c0-.013-.017-.013-.03-.03-2.956-2.342-5.955-4.644-9.3-5.5a.18.18,0,0,0-.088-.015,10.174,10.174,0,0,0-5.123.425c-7.337,2.445-11.849,10.085-12.576,17.436a.635.635,0,0,0,.116.423c-.015.043-.03.073-.043.116a.8.8,0,0,0,.626-.349.651.651,0,0,0,.392-.2c2.386-2.549,4.937-4.921,7.438-7.352a36.891,36.891,0,0,1,3.756-3.611c2.911-2.081,5.415-1.688,8.472-.8a52.2,52.2,0,0,1,10.3,4.775c1.238.7,2.446,1.88,3.857,1.238a.673.673,0,0,0,.365-.641A.641.641,0,0,0,93.231,128.613Z" transform="translate(20.471 -68.046)"/><path class="h" d="M56.879,151.729c-.694-2.821-1.47-5.681-2.43-8.476.01-.023.028-.038.035-.065a39.758,39.758,0,0,0,1.54-13.546.684.684,0,0,0,.566-.488,23.459,23.459,0,0,0,1.06-8.207c-.045-.933-1.5-.938-1.455,0a22.379,22.379,0,0,1-.46,5.7,40.458,40.458,0,0,0-1.4-6.426c-.274-.895-1.68-.513-1.4.385a38.01,38.01,0,0,1,.646,20.249,38.345,38.345,0,0,0-5.365-9.724c-5.394-6.9-15.2-11.1-22.959-7.845a.634.634,0,0,0-.516-.594,11.4,11.4,0,0,0-8.685,1.326.729.729,0,0,0,.735,1.258,9.86,9.86,0,0,1,7.015-1.283,15.192,15.192,0,0,0-4.876,4.446c-.548.762.714,1.489,1.258.735,3.719-5.163,10.485-6.788,16.412-4.864a19.224,19.224,0,0,1,4.775,2.358c-6.2-.129-10.907,4.028-15.149,8.159-.67.656.358,1.684,1.029,1.029.845-.821,1.7-1.646,2.586-2.435a16.562,16.562,0,0,0-.134,4.441c.1.923,1.553.931,1.455,0a15.645,15.645,0,0,1,.417-5.641.665.665,0,0,0,.015-.277c3-2.37,6.353-4.094,10.469-3.8a.6.6,0,0,0,.669-.488,29.386,29.386,0,0,1,7.78,9.889c3.744,7.44,5.88,15.947,7.088,24.464a15.626,15.626,0,0,1-7.744-4.662c-.632-.694-1.66.34-1.029,1.031a17.138,17.138,0,0,0,3.566,2.967,16.6,16.6,0,0,1-2.514-.174c-.916-.143-1.309,1.26-.387,1.406a19.292,19.292,0,0,0,4.194.209.7.7,0,0,0,.6-.408,17.2,17.2,0,0,0,3.379,1.158.684.684,0,0,0,.141,0c.533,4.126.858,8.242,1.046,12.225.045.934,1.5.939,1.455,0A125.809,125.809,0,0,0,56.879,151.729Z" transform="translate(-7.631 -66.661)"/><path class="h" d="M65.945,139.523c-1.311.949-2.559,1.963-3.754,3.025a22.783,22.783,0,0,1,3.361-7.194c.541-.768-.722-1.5-1.256-.734a23.811,23.811,0,0,0-3.872,8.935.723.723,0,0,0,.1.553,47.289,47.289,0,0,0-8.247,10.781q-.592-7.525-.969-15.069c-.173-3.571-.45-7.573-.551-11.688,1.684-2.27,3.467-4.5,6.082-5.732.848-.4.11-1.653-.734-1.258a15.428,15.428,0,0,0-5.384,4.65c-.01-1.93.023-3.873.141-5.8a.723.723,0,0,0,.04-.669c.73-10.275,3.815-19.986,13.658-24.527.85-.392.11-1.646-.735-1.256a21.66,21.66,0,0,0-6.283,4.328,9.743,9.743,0,0,1,.669-4.132c.34-.871-1.067-1.251-1.4-.385a11.053,11.053,0,0,0-.587,5.848c.007.033.023.051.032.081-4.189,5-5.92,11.67-6.547,18.586q-3.162-3.672-6.326-7.345a.6.6,0,0,0,.335-.607,10.88,10.88,0,0,0-1.958-5.639c-.534-.758-1.8-.033-1.258.735a9.495,9.495,0,0,1,1.648,4.086l-2.35-2.728c-.612-.71-1.636.322-1.029,1.029q5.392,6.261,10.787,12.518c-.156,2.544-.176,5.1-.143,7.6-.032.043-.065.086-.1.129a.585.585,0,0,0,.113.85c.05,2.45.148,4.843.237,7.095q.7,17.411,2.619,34.734c-2.62-1.449-4.059-4.177-5.365-6.791-.42-.838-1.676-.1-1.258.735,1.5,3,3.216,6.137,6.4,7.594a.7.7,0,0,0,.39.056q1.257,11.12,2.987,22.179c.144.923,1.548.529,1.4-.387Q54,175.552,52.47,157.234a.623.623,0,0,0,.34-.307,45.848,45.848,0,0,1,13.864-16.146C67.428,140.235,66.7,138.97,65.945,139.523Z" transform="translate(7.459 -84.375)"/><path class="h" d="M81.85,122.72a17.843,17.843,0,0,0-8.386,1.933,28.87,28.87,0,0,1,3.5-3.18c.732-.561.01-1.826-.735-1.256a31.317,31.317,0,0,0-6.368,6.526.7.7,0,0,0-.124.287c-4.926,3.867-8.565,9.768-10.83,15.4a66.594,66.594,0,0,0-3.188,10.558,22.225,22.225,0,0,1-1.771-4.4,4.937,4.937,0,0,0-1.887-2.994c-.795-.5-1.527.762-.734,1.258,1.178.737,1.45,2.869,1.875,4.094a12.976,12.976,0,0,0,1.6,3.354.711.711,0,0,0,.566.309c-1.764,8.8-2.252,17.945-3.1,26.756-.091.931,1.366.928,1.455,0,.788-8.2,1.294-16.591,2.781-24.754a.671.671,0,0,0,.3-.194c2.748-3.037,5.6-6.091,9.071-8.2a10.131,10.131,0,0,0,3.623,2.171c.89.3,1.271-1.1.387-1.4a8.425,8.425,0,0,1-2.669-1.5,18.082,18.082,0,0,1,3.034-1.258.727.727,0,0,0-.385-1.4,19.739,19.739,0,0,0-3.96,1.694.761.761,0,0,0-.556.334,38.515,38.515,0,0,0-8.334,7.188c.483-2.292,1.032-4.566,1.726-6.8a47.117,47.117,0,0,1,6.728-13.765.723.723,0,0,0,.078-.01,27.709,27.709,0,0,1,5.075-1.178c.924-.124.531-1.527-.387-1.4a28.2,28.2,0,0,0-3.206.651c3.8-4.386,8.71-7.466,14.817-7.35A.728.728,0,0,0,81.85,122.72Z" transform="translate(15.636 -66.423)"/><g transform="translate(36.714 101.65)"><path class="i" d="M81.6,149,80.44,156.21l-2.081,12.918L73.834,197.3H40.722L36.2,169.128,34.119,156.21,32.962,149Z" transform="translate(-32.962 -148.996)"/><path class="j" d="M46.786,156.21,45.63,149H32.962l1.157,7.214L36.2,169.128,40.722,197.3H53.39l-4.524-28.167Z" transform="translate(-32.962 -148.996)"/><path class="k" d="M55.87,194.514c-.043,0-.088,0-.131,0-.856-.046-1.489-.521-1.417-1.06L60.012,150.6c.071-.539.812-.948,1.676-.9s1.489.521,1.417,1.06l-5.691,42.854C57.347,194.125,56.668,194.514,55.87,194.514Z" transform="translate(-18.877 -148.535)"/></g></g><g transform="translate(86.321 100.187)"><path class="l" d="M119.334,114.861H71.244a8.4,8.4,0,0,1-8.391-8.393V76.5a8.4,8.4,0,0,1,8.391-8.393h48.09a8.4,8.4,0,0,1,8.393,8.393v9.6l12.105.055a.538.538,0,0,1,.36.936l-12.465,11.3v8.074A8.4,8.4,0,0,1,119.334,114.861Z" transform="translate(-62.853 -68.109)"/></g><g transform="translate(341.055 178.825)"><g transform="translate(4.051)"><path class="m" d="M280.843,193.6l-6.4,5.462-53.3-51.4-2.352-10.679,6.4-5.46,74.287-12.193-4.775,19-6.4,5.462-44.811.679,42.081,30.259Z" transform="translate(-218.786 -112.96)"/><path class="m" d="M257.976,210.5l43.171-89.545,6.4-5.462,14.065,3.522-49.834,94.949-6.4,5.462Z" transform="translate(-192.937 -115.493)"/><path class="m" d="M287.362,201.284l-1.671-13.418,6.4-5.462,51.422-6.648-42.24-29.949-1.694-13.273,6.4-5.462L365.776,172.9l-4.013,16-6.4,5.462Z" transform="translate(-174.656 -107.856)"/></g><g transform="translate(0 5.462)"><path class="i" d="M276.052,196.892l-59.707-45.936,4.049-16.141,74.288-12.191-4.776,19-51.212,6.14,42.079,30.258Z" transform="translate(-216.345 -116.251)"/><path class="i" d="M254.118,213.791l49.572-95.007,14.063,3.52-49.834,94.95Z" transform="translate(-191.43 -118.784)"/><path class="i" d="M282.84,204.573l4.732-18.878,51.421-6.647L296.754,149.1l4.707-18.735,59.8,45.825-4.015,16.005Z" transform="translate(-172.485 -111.147)"/></g></g><g transform="translate(143.652 151.449)"><path class="e" d="M98.249,101.885c1.925-1.739,4.68-.272,6.127.732a11.429,11.429,0,0,1,1.193.9l-1.039,1.173s-.081-.07-.207-.171l-.017.017c-.007,0-.3-.262-.762-.586a9.485,9.485,0,0,0-1.055-.619c-1.333-.659-2.33-.7-2.966-.128-.315.285-.485,1.286-.151,2.886a13.437,13.437,0,0,0,1.925,4.58,6.919,6.919,0,0,0,1.381,1.537,1.745,1.745,0,0,0,1.8.236L105.4,114a3.071,3.071,0,0,1-1.371.329,3.716,3.716,0,0,1-2.176-.793,7.58,7.58,0,0,1-2.074-2.139C97.907,108.645,96.382,103.572,98.249,101.885Z" transform="translate(-97.399 -97.624)"/><g transform="translate(5.338)"><path class="e" d="M121.828,99.966l-1.711,18.186c0,.826-4.725,1.5-8.9,1.5s-9.119-.672-9.119-1.5l-1.487-18.186Z" transform="translate(-100.615 -98.358)"/><path class="e" d="M100.615,100.605c0,.89,4.746,1.61,10.606,1.61s10.608-.72,10.608-1.61S117.081,99,111.221,99,100.615,99.717,100.615,100.605Z" transform="translate(-100.615 -98.997)"/><path class="n" d="M101.076,100.426c0,.184.367.358,1.017.516a46.417,46.417,0,0,0,8.822.642,46.254,46.254,0,0,0,8.826-.642c.652-.158,1.016-.33,1.016-.516,0-.641-4.4-1.158-9.843-1.158S101.076,99.786,101.076,100.426Z" transform="translate(-100.311 -98.818)"/><path class="o" d="M101.689,100.533a46.417,46.417,0,0,0,8.822.642,46.254,46.254,0,0,0,8.826-.642,46.233,46.233,0,0,0-8.826-.644A46.1,46.1,0,0,0,101.689,100.533Z" transform="translate(-99.907 -98.409)"/></g><path class="p" d="M108.942,119.12a30.384,30.384,0,0,0,3.5-.441l1.6-18.093a35.58,35.58,0,0,1-4.549.519Z" transform="translate(-89.785 -97.949)"/><path class="p" d="M107.558,119c.375-.007.747-.022,1.12-.038l.461-18.026c-.368.013-.742.025-1.124.033Z" transform="translate(-90.698 -97.717)"/></g><g transform="translate(244.353 147.605)"><g transform="translate(26.983 38.808)"><path class="f" d="M183.091,177.323a3.739,3.739,0,1,1-3.739-3.739A3.741,3.741,0,0,1,183.091,177.323Z" transform="translate(-173.494 -84.764)"/><path class="f" d="M193.02,177.323a3.739,3.739,0,1,1-3.739-3.739A3.74,3.74,0,0,1,193.02,177.323Z" transform="translate(-166.945 -84.764)"/><path class="f" d="M202.948,177.323a3.738,3.738,0,1,1-3.737-3.739A3.74,3.74,0,0,1,202.948,177.323Z" transform="translate(-160.395 -84.764)"/><rect class="q" width="8.31" height="90.552" transform="translate(18.182)"/><rect class="q" width="14.74" height="14.332" transform="translate(14.968 27.347)"/><rect class="f" width="11.111" height="14.331" transform="translate(16.782 32.886)"/><path class="f" d="M219.011,176.314H174.336a4.983,4.983,0,0,1,4.984-4.982h34.705a4.985,4.985,0,0,1,4.985,4.982Z" transform="translate(-174.336 -86.25)"/></g><path class="f" d="M235.1,96.681l-.554,3.268-10.265,62.857H178.925l9.818-60.3a7,7,0,0,1,6.891-5.824H235.1Z" transform="translate(-144.326 -96.681)"/><path class="c" d="M233.542,98.65l-10.265,62.857H180.45l9.264-57.045a6.99,6.99,0,0,1,6.892-5.812h36.936Z" transform="translate(-143.32 -95.382)"/><path class="r" d="M212.239,164.08l-8.323-1.275,10.211-62.611a4.226,4.226,0,0,1,4.169-3.513h0a4.231,4.231,0,0,1,4.169,4.944Z" transform="translate(-127.842 -96.681)"/><path class="s" d="M161.894,143.1h52.88a3.813,3.813,0,0,0,3.814-3.815h0a3.813,3.813,0,0,0-3.814-3.814h-52.88a3.815,3.815,0,0,0-3.817,3.814h0A3.817,3.817,0,0,0,161.894,143.1Z" transform="translate(-158.077 -71.093)"/><path class="r" d="M189.969,143.1h30.943a3.814,3.814,0,0,0,3.815-3.815h0a3.812,3.812,0,0,0-3.815-3.814H189.969a3.814,3.814,0,0,0-3.815,3.814h0A3.817,3.817,0,0,0,189.969,143.1Z" transform="translate(-139.558 -71.093)"/><path class="r" d="M218.268,105.449H189.276a1.041,1.041,0,0,1-1.042-1.042h0a1.041,1.041,0,0,1,1.042-1.044h28.991a1.042,1.042,0,0,1,1.042,1.044h0A1.042,1.042,0,0,1,218.268,105.449Z" transform="translate(-138.186 -92.274)"/><path class="r" d="M216.521,113.59h-28.99a1.044,1.044,0,0,1-1.046-1.044h0a1.044,1.044,0,0,1,1.046-1.044h28.99a1.041,1.041,0,0,1,1.042,1.044h0A1.041,1.041,0,0,1,216.521,113.59Z" transform="translate(-139.339 -86.905)"/><path class="r" d="M214.772,121.727h-28.99a1.041,1.041,0,0,1-1.042-1.042h0a1.043,1.043,0,0,1,1.042-1.044h28.99a1.044,1.044,0,0,1,1.046,1.044h0A1.042,1.042,0,0,1,214.772,121.727Z" transform="translate(-140.49 -81.537)"/></g><g transform="translate(189.151 84.042)"><path class="t" d="M155.092,166.9h-8.9c-1.578,6.8-6.335,11.28-14.445,12.022-4.763.435-4.39,6.3-4.39,6.3h26.384s3.176-2.757-.191-8.686C152.731,175.084,155.092,166.9,155.092,166.9Z" transform="translate(-123.139 13.196)"/><path class="r" d="M131.749,175.682c-4.763.435-4.39,6.3-4.39,6.3h26.384s3.176-2.757-.191-8.686c-1.784,1.014-6.331,2.084-11.981-1.494A21.24,21.24,0,0,1,131.749,175.682Z" transform="translate(-123.14 16.433)"/><path class="t" d="M191.3,97.343c-2.644,6.363-21.7,26.5-25.2,30.349-4.222,4.644-14.345.6-12.626-4.881C155,117.96,175.27,91.4,178.242,88.949,183.6,84.523,194.609,89.382,191.3,97.343Z" transform="translate(-106.039 -39.325)"/><path class="q" d="M207.417,119.686c11.655,4.886,2.75,23.794-12.3,28.7s-31.884,1.839-44.97,2.79c-3.717.271-13.215-5.915-6.238-13.546S191.67,113.083,207.417,119.686Z" transform="translate(-113.863 -18.931)"/><path class="q" d="M147.52,130.5c-10.982,10.764-8.235,55.777-10.892,63.78a51.975,51.975,0,0,0,14.653,4.71s12.576-52.763,13.116-58.755C165.518,127.711,151.133,126.961,147.52,130.5Z" transform="translate(-117.022 -12.02)"/><path class="f" d="M188.434,119.11s-31.8,14.729-35.094,22.879-2.8,31.965-7.883,63.307l12.424-54.733,20.723-.42,23.287-22.629Z" transform="translate(-111.199 -18.324)"/><path class="q" d="M225.343,120.983c4.5,9.1,1.517,21.819-13.529,26.726s-31.781,3.819-45.908,4.768c-3.719.251-14.53-5.7-7.553-13.327S217.779,105.675,225.343,120.983Z" transform="translate(-104.205 -20.228)"/><path class="u" d="M177.028,115.117c6.267-6.989,10.972-16.617,12.44-20.1,3.5-8.28-6.343-14.345-11.825-9.931-1.369,1.1-11.164,8.235-16.486,15.917C164.149,108.144,175.662,114.75,177.028,115.117Z" transform="translate(-100.843 -41.746)"/><path class="f" d="M201.814,123.646s13.23,4.185,6.25,12.072-38.048,15.522-38.048,15.522,38.634,2.689,45.8-13.8c6.212-14.291-2.679-20.785-2.679-20.785Z" transform="translate(-95 -19.94)"/><path class="v" d="M220.872,146.225c-33.212,6.979-53.885-3.241-53.885-3.241s.12-.38.3-1.112c.712-2.949,2.355-11.624.875-24.046-1.845-15.492,3.266-28.942,6.3-32.012s8.794-2.574,8.794-2.574,13.486-1.218,15.26-1.064,13.481.164,15.98,5.029c.068.131.136.267.2.4.312.636.607,1.314.891,2.038a70.011,70.011,0,0,1,3.505,15.137C221.661,123.253,220.872,146.225,220.872,146.225Z" transform="translate(-96.998 -42.694)"/><path class="t" d="M179.52,81.532s.921,5.359-.763,6.064a16.444,16.444,0,0,1-3.937.946s9.207,13.327,19.683-1.225c0,0-3.127.038-4.1-1.223s-1.563-7.506-1.082-11.629Z" transform="translate(-91.831 -47.771)"/><path class="u" d="M220.872,144.212c-33.212,6.979-53.885-3.241-53.885-3.241s.12-.38.3-1.112c50.782,13.031,50.347-10.648,43.607-29.454-4.841-13.522-6.921-14.553-6.921-14.553L214.692,85.6l.395-.38q.254,1.182.5,2.418c.624,3.173,1.188,6.6,1.7,10.13a23.535,23.535,0,0,0,1.807,5.009C221.661,121.24,220.872,144.212,220.872,144.212Z" transform="translate(-96.998 -40.681)"/><path class="w" d="M189.093,86.094c-.966-1.261-1.563-7.506-1.082-11.629l-5.59,4.029a15.067,15.067,0,0,1,2.73,3.933c1.455,2.74,2.28,6.59-.566,8.7-2.186,1.62-5.087,1.54-7.774.747,3.6,2.689,9.73,4.677,16.375-4.554C193.189,87.317,190.062,87.357,189.093,86.094Z" transform="translate(-90.517 -47.771)"/><path class="t" d="M204.753,88.484c5.007,4.733,17.041,29.71,19.4,34.354,2.836,5.6-2.514,11.918-7.636,9.312-4.363-2.221-23.022-30.8-24.255-34.446C190.031,91.117,198.49,82.56,204.753,88.484Z" transform="translate(-80.569 -39.838)"/><path class="t" d="M223.346,120.206c-6.577.785-30.5-4.081-35.039-4.914-5.467-1-6.911-9.6-1.2-9.2,5.508.387,37,.682,40.1,1.723C232.807,109.692,231.575,119.226,223.346,120.206Z" transform="translate(-86.134 -26.919)"/><path class="t" d="M174.028,118.46c-6.466,1.434-30.757-1.019-35.354-1.4-5.54-.45-7.837-8.862-2.114-9.033,5.52-.166,36.883-3.011,40.072-2.287C182.392,107.052,182.116,116.664,174.028,118.46Z" transform="translate(-119.26 -27.218)"/><path class="v" d="M217.395,101.453c-5.4-7.679-13.723-14.43-16.787-16.646-7.282-5.269-15.406,2.951-12.341,9.285a77,77,0,0,0,11.252,17.248C207.152,110.031,216.729,102.7,217.395,101.453Z" transform="translate(-83.4 -42.06)"/><path class="r" d="M133.292,175.7s4.511-2.677,5.058-5.04,3.351-.219,3.626.441S138.669,175.637,133.292,175.7Z" transform="translate(-119.222 14.968)"/><path class="t" d="M186.732,170.545c-1.5-.72-4.23-8.8-4.23-8.8l-7.31,5.072c2.579,6.484,1.226,12.878-5.015,18.111a4.332,4.332,0,0,0-1.509,2.353h9.174l14-9.71S192.877,173.5,186.732,170.545Z" transform="translate(-95.889 9.801)"/><path class="r" d="M191.892,174.077l-2.7,1.872-12.522,8.686-8.081.289a4.261,4.261,0,0,1,1.648-3.492,20.645,20.645,0,0,0,3.782-4.483,17.645,17.645,0,0,0,2.07-4.3c6.682-.276,9.807-3.757,10.7-5.6C192.933,170,191.892,174.077,191.892,174.077Z" transform="translate(-95.943 13.297)"/><path class="r" d="M189.965,173.031l-12.522,8.686-10.011.448s-.592-5.852,4.152-6.459c1.714-.222,6.373-3.349,7.387-4.232C183.823,174.309,187.791,173.887,189.965,173.031Z" transform="translate(-96.719 16.215)"/><path class="r" d="M171.784,176.689s2.179-4.771,1.283-7.023,2.629-2.089,3.23-1.7S176.162,173.567,171.784,176.689Z" transform="translate(-93.833 13.747)"/><path class="q" d="M156.2,134.52c-4.076,14.83,24.159,50.759,25.885,59.012,0,0,8.022-3.2,12.442-7.944,0,0-16.3-45.692-18.845-51.142C170.356,123.056,157.546,129.641,156.2,134.52Z" transform="translate(-104.376 -12.365)"/><path class="o" d="M178.419,71.2l-5.427-.687.071-.564,5.429.685Z" transform="translate(-93.037 -50.752)"/><path class="o" d="M188.77,70.818c-.078-.465-3.2-2.989-3.533-2.825-.048,0,.171,10.729-.332,11.7-.37.717-.916,2.34.116,2.748a2.409,2.409,0,0,0,2.694-.956C191.1,76.392,188.969,72,188.77,70.818Z" transform="translate(-85.496 -52.045)"/><path class="t" d="M174.82,65.778V81.987c0,4.383,3.874,7.936,8.651,7.936h0c4.778,0,8.648-3.555,8.648-7.936v-.363s4.444.968,4.444-3.9-2.795-4.184-2.795-4.184V65.776H174.82Z" transform="translate(-91.831 -53.502)"/><path class="w" d="M192.2,74.382V64.506h-6.728c0,.046.007,3.553.007,3.6V84.924c0,2.939-2.843,5.326-5.794,5.226a5.542,5.542,0,0,1-2.5-.689,9.147,9.147,0,0,0,4.715,1.3c4.778,0,8.648-3.555,8.648-7.936v-.363s4.444.968,4.444-3.9S192.2,74.382,192.2,74.382Z" transform="translate(-90.266 -54.34)"/><path class="o" d="M196.24,62.59c-.007-.013,0-.028-.012-.041-2.363-4.884-10.3-4.663-12.649-3.225-1.036-.755-4.5-1.92-6.454.559-3.988.091-5.276,2.856-5.515,4.126-.573,3.022.938,6.607,4.1,7.365,2.119.509,4.521.817,6.145-.657,1.676,1.421,6.026.8,8-.06.891,3.508,1.665,10.437,3.593,10.432.941,0,2.889-1.567,2.516-2.664C200.753,77.636,200.849,63.978,196.24,62.59Z" transform="translate(-94.027 -58.38)"/><g transform="translate(79.708 18.195)"><path class="o" d="M177.166,74.977a1.868,1.868,0,0,1-.193-.008l-3.1-.237a1.222,1.222,0,0,1-1.036-1.278v-2.83a1.2,1.2,0,0,1,1.11-1.28h5.291a1.035,1.035,0,0,1,.822.418,1.422,1.422,0,0,1,.249,1.207l-.37,1.523A2.988,2.988,0,0,1,177.166,74.977Zm-.149-.574a2.387,2.387,0,0,0,2.377-2.043l.368-1.523a.868.868,0,0,0-.143-.724.487.487,0,0,0-.375-.2h-5.291a.644.644,0,0,0-.541.712v2.83a.656.656,0,0,0,.513.709Z" transform="translate(-172.843 -69.344)"/><path class="o" d="M181.623,74.977a2.99,2.99,0,0,1-2.778-2.484l-.368-1.523a1.413,1.413,0,0,1,.246-1.207,1.055,1.055,0,0,1,.822-.418h5.292a1.207,1.207,0,0,1,1.112,1.28v2.83a1.226,1.226,0,0,1-1.037,1.278l-3.1.237A1.835,1.835,0,0,1,181.623,74.977Zm-2.078-5.063a.489.489,0,0,0-.375.2.86.86,0,0,0-.141.722l.368,1.523a2.391,2.391,0,0,0,2.375,2.043l3.1-.239a.657.657,0,0,0,.511-.709v-2.83c0-.387-.247-.712-.541-.712Z" transform="translate(-169.155 -69.344)"/><path class="o" d="M177.339,70.769l-.231-.519a3.107,3.107,0,0,1,2.677.025l-.317.471A2.588,2.588,0,0,0,177.339,70.769Z" transform="translate(-170.03 -68.952)"/></g><path class="o" d="M190.12,70.856l-7.337-.342.027-.571,7.34.345Z" transform="translate(-86.579 -50.754)"/><path class="t" d="M147.032,109.173c-3.135-.334-9.571-4.79-12.852-4.134-3.032.606-3.63,2.284-6.313,3.683-1.472.767-1.869,2.164-1.238,3.022-.307.4-1.431.659-1.726,1.553-.488,1.49,1.09,2.177,3.2.845,1.039-.657-1.238,1.172-1.97,1.723-1.731,1.3,1.225,2.783,2.969,1.474.851-.641,2.255-1.519,2.282-1.328A9.261,9.261,0,0,1,130,117.4c-1.465,1.19,1.482,2.455,2.959,1.256,1.153-.938,4.428-2.649,5.752-3.507a18.345,18.345,0,0,1,2.625.611,5.66,5.66,0,0,1-2.279,1.324c-.641.282-1.109.856-.773,1.57.362.77,1.185.742,1.9.622,1.021-.171,1.94-.046,2.8-.73a40.229,40.229,0,0,1,3.3-2.928C147.276,115.241,148.3,109.308,147.032,109.173Z" transform="translate(-124.814 -27.648)"/><g transform="translate(80.652 39.468)"><path class="l" d="M191.024,82.24a14.739,14.739,0,0,1-10.514,6.791l5.258,5.254s6.295-5.287,7.315-12.123Z" transform="translate(-168.73 -82.162)"/><path class="l" d="M176.024,82.948s2.466,4.758,9.6,5.566l-5.258,5.254s-5.928-3.578-6.95-10.414Z" transform="translate(-173.412 -81.644)"/><path class="f" d="M182.858,86.3l4.831,5.254-2.931,5.334h-4.849L177.6,91.555Z" transform="translate(-170.65 -79.432)"/><path class="c" d="M185.566,92.681l2.931,20.708-6.6,7.121-5.526-6.944,4.341-20.886Z" transform="translate(-171.458 -75.224)"/></g><path class="t" d="M174.507,111.933c2.116-1.387,4.122-2.772,2.451-1.864-2.138,1.16-4.444-.73-2.322-1.882,2.659-1.447,5.51-3.349,8.532-4.008,3.268-.712,9.785,3.63,12.925,3.907,1.266.111.347,6.061-.641,6.452-3.3,1.3-7.077-.519-7.578-.337a30.371,30.371,0,0,0-3.044,2.484c-1.454,1.221-4.424.01-2.982-1.207.919-.773.453-1.09-.89-.043-1.719,1.341-4.7-.09-3-1.421.724-.563.821-.989-.2-.314C175.669,115.066,172.433,113.29,174.507,111.933Z" transform="translate(-92.507 -28.224)"/></g><g transform="translate(188.9 133.62)"><g transform="translate(6.822 35.568)"><rect class="f" width="55.241" height="2.916"/><path class="c" d="M162.06,112.6h25.427v-1.64a1.276,1.276,0,0,0-1.275-1.275H162.06Z" transform="translate(-106.819 -109.685)"/></g><path class="f" d="M132.427,123.822h55.02l-7.242-33.876a2.076,2.076,0,0,0-1.992-1.693H128.662a3.217,3.217,0,0,0-2.989,3.983Z" transform="translate(-124.048 -88.254)"/><path class="r" d="M131.706,123.822h55.02l-7.244-33.876a2.074,2.074,0,0,0-1.99-1.693H126.9a2.343,2.343,0,0,0-2.177,2.9Z" transform="translate(-124.663 -88.254)"/><path class="x" d="M148.08,88.254l-15.494,35.568h7.086l16.073-35.568Z" transform="translate(-119.437 -88.254)"/><path class="x" d="M155.06,88.254l-15.5,35.568h2.762L158.4,88.254Z" transform="translate(-114.835 -88.254)"/></g><g transform="translate(125.077 171.058)"><g transform="translate(6.465 5.382)"><rect class="y" width="5.334" height="106.084" transform="translate(1.461)"/><rect class="f" width="1.46" height="106.084" transform="translate(1.46 106.084) rotate(180)"/></g><g transform="translate(51.383 5.382)"><rect class="y" width="5.334" height="106.084" transform="translate(1.461)"/><rect class="f" width="1.462" height="106.084" transform="translate(1.462 106.084) rotate(180)"/></g><g transform="translate(185.281 5.382)"><rect class="f" width="5.334" height="106.084" transform="translate(1.461)"/><rect class="y" width="1.46" height="106.084" transform="translate(1.46 106.084) rotate(180)"/></g><g transform="translate(238.3 5.382)"><rect class="f" width="5.336" height="106.084" transform="translate(1.458)"/><rect class="y" width="1.459" height="106.084" transform="translate(1.459 106.084) rotate(180)"/></g><rect class="y" width="248.793" height="6.426"/><rect class="f" width="69.301" height="6.426" transform="translate(179.493)"/></g><g transform="translate(164.955 50.754)"><path class="l" d="M178.258,38.323h-59.48a8.544,8.544,0,0,0-8.544,8.544v32.6a8.541,8.541,0,0,0,8.544,8.542h37.195l9.015,12.137a1.668,1.668,0,0,0,3.007-1l-.013-11.141h10.276a8.542,8.542,0,0,0,8.544-8.542v-32.6A8.544,8.544,0,0,0,178.258,38.323Z" transform="translate(-110.235 -38.323)"/><g transform="translate(7.712 7.755)"><g transform="translate(11.332 4.137)"><path class="c" d="M151.844,46.551h-21.87a.531.531,0,0,1,0-1.062h21.87a.531.531,0,1,1,0,1.062Z" transform="translate(-116.608 -45.489)"/><path class="c" d="M131.1,46.551h-8.854a.531.531,0,0,1,0-1.062H131.1a.531.531,0,0,1,0,1.062Z" transform="translate(-121.709 -45.489)"/><path class="c" d="M147.783,51.753h-11.65a.53.53,0,1,1,0-1.06h11.65a.53.53,0,1,1,0,1.06Z" transform="translate(-112.547 -42.056)"/><path class="c" d="M141.839,51.753h-19.6a.53.53,0,1,1,0-1.06h19.6a.53.53,0,1,1,0,1.06Z" transform="translate(-121.71 -42.056)"/></g><g transform="translate(21.299 21.06)"><path class="c" d="M152.056,56.746H134.468a.53.53,0,1,1,0-1.06h17.588a.53.53,0,1,1,0,1.06Z" transform="translate(-123.613 -55.686)"/><path class="c" d="M135.368,56.746h-7.12a.53.53,0,1,1,0-1.06h7.12a.53.53,0,1,1,0,1.06Z" transform="translate(-127.716 -55.686)"/><path class="c" d="M148.79,61.6h-9.368a.531.531,0,1,1,0-1.062h9.368a.531.531,0,1,1,0,1.062Z" transform="translate(-120.346 -52.488)"/><path class="c" d="M144.01,61.6H128.249a.531.531,0,1,1,0-1.062H144.01a.531.531,0,1,1,0,1.062Z" transform="translate(-127.716 -52.488)"/></g><g transform="translate(53.857 15.024)"><path class="u" d="M153.959,62.511a2.917,2.917,0,0,0-1.067.212,1.5,1.5,0,0,0-.612.586,2.8,2.8,0,0,0-.365,1.031,11.5,11.5,0,0,0-.078,1.606,13.71,13.71,0,0,1-.168,2.622,2.345,2.345,0,0,1-.626,1.195,3.151,3.151,0,0,1-1.334.714,7.257,7.257,0,0,1-1.859.173h-.514V68.33a4.4,4.4,0,0,0,1.354-.129.947.947,0,0,0,.47-.378,1.739,1.739,0,0,0,.156-.84q0-.587.081-2.254a5.826,5.826,0,0,1,.262-1.611,3.24,3.24,0,0,1,.566-1.026,3.377,3.377,0,0,1,.9-.74,4.043,4.043,0,0,1-1.046-.911,3.84,3.84,0,0,1-.619-1.625,29.214,29.214,0,0,1-.154-2.982,2.579,2.579,0,0,0-.131-.966.8.8,0,0,0-.436-.373,4.564,4.564,0,0,0-1.409-.133V52.049h.514a7.586,7.586,0,0,1,2,.2,2.613,2.613,0,0,1,1.172.692,2.528,2.528,0,0,1,.644,1.2,10.657,10.657,0,0,1,.168,2.24,11.216,11.216,0,0,0,.146,2.315,2.025,2.025,0,0,0,.649,1.109,2.388,2.388,0,0,0,1.328.38v2.322Z" transform="translate(-147.334 -52.049)"/></g><path class="u" d="M114.884,51.136a2.413,2.413,0,0,0,1.326-.38,2.023,2.023,0,0,0,.651-1.109,11.341,11.341,0,0,0,.146-2.315,10.55,10.55,0,0,1,.169-2.24,2.527,2.527,0,0,1,.644-1.2,2.632,2.632,0,0,1,1.17-.692,7.621,7.621,0,0,1,2-.2h.513v2.315a4.684,4.684,0,0,0-1.409.128.812.812,0,0,0-.436.375,2.645,2.645,0,0,0-.131.966,28.735,28.735,0,0,1-.154,2.982,3.81,3.81,0,0,1-.619,1.625,3.987,3.987,0,0,1-1.046.911,3.385,3.385,0,0,1,.906.74,3.272,3.272,0,0,1,.566,1.026,5.761,5.761,0,0,1,.261,1.611q.077,1.665.083,2.255a1.747,1.747,0,0,0,.154.836.953.953,0,0,0,.47.378,4.411,4.411,0,0,0,1.354.129V61.6h-.513a7.156,7.156,0,0,1-1.859-.174,3.123,3.123,0,0,1-1.336-.714,2.363,2.363,0,0,1-.624-1.193A13.669,13.669,0,0,1,117,56.9a11.281,11.281,0,0,0-.078-1.608,2.863,2.863,0,0,0-.363-1.031,1.531,1.531,0,0,0-.616-.586,2.9,2.9,0,0,0-1.065-.214v-2.32Z" transform="translate(-114.882 -42.996)"/></g></g></g><g transform="translate(111.856 124.925)"><path class="i" d="M79.458,88.941a1.4,1.4,0,0,0-.529-1.167,6.562,6.562,0,0,0-1.862-.865,18,18,0,0,1-2.179-.865q-2.751-1.352-2.752-3.714a3.333,3.333,0,0,1,.685-2.076,4.433,4.433,0,0,1,1.94-1.4,7.553,7.553,0,0,1,2.82-.5,6.594,6.594,0,0,1,2.737.544A4.339,4.339,0,0,1,82.2,80.449a4.046,4.046,0,0,1,.67,2.3h-3.4a1.713,1.713,0,0,0-.529-1.343A2.061,2.061,0,0,0,77.5,80.93a2.331,2.331,0,0,0-1.444.4,1.188,1.188,0,0,0,.055,2.013,7.377,7.377,0,0,0,2.051.914,12.7,12.7,0,0,1,2.411,1.016,4.053,4.053,0,0,1,2.3,3.646,3.457,3.457,0,0,1-1.4,2.918,6.227,6.227,0,0,1-3.84,1.06,7.627,7.627,0,0,1-3.117-.617,4.7,4.7,0,0,1-2.1-1.693,4.4,4.4,0,0,1-.705-2.474h3.424a2.175,2.175,0,0,0,.587,1.678,2.777,2.777,0,0,0,1.91.539,2.195,2.195,0,0,0,1.338-.365A1.206,1.206,0,0,0,79.458,88.941Z" transform="translate(-71.708 -78.35)"/><path class="i" d="M92.606,85.917a8.351,8.351,0,0,1-.652,3.427,5.967,5.967,0,0,1-1.8,2.348L92.44,93.5,90.331,95.29l-3.044-2.451a6.454,6.454,0,0,1-.856.058,6.139,6.139,0,0,1-3.21-.836,5.675,5.675,0,0,1-2.182-2.391,8.119,8.119,0,0,1-.812-3.578v-.748a8.371,8.371,0,0,1,.763-3.676,5.69,5.69,0,0,1,2.179-2.451,6.478,6.478,0,0,1,6.452-.008,5.755,5.755,0,0,1,2.192,2.436,8.159,8.159,0,0,1,.793,3.623v.651Zm-3.472-.592a5.959,5.959,0,0,0-.705-3.2,2.432,2.432,0,0,0-4.051-.015,6.019,6.019,0,0,0-.69,3.16v.652a6.129,6.129,0,0,0,.69,3.2,2.256,2.256,0,0,0,2.051,1.114,2.229,2.229,0,0,0,2-1.1,5.993,5.993,0,0,0,.705-3.16v-.652Z" transform="translate(-66.089 -78.351)"/><path class="i" d="M93.108,90h5.941v2.625H89.694V78.469h3.414Z" transform="translate(-59.845 -78.273)"/></g></g></svg>